<svg width="200px" height="199px" viewBox="0 0 200 199" version="1.1" xmlns="http://www.w3.org/2000/svg" xmlns:xlink="http://www.w3.org/1999/xlink" xmlns:sketch="http://www.bohemiancoding.com/sketch/ns">
    <g id="circleTexture" transform="translate(22.000000, 21.000000)" sketch:type="MSShapeGroup">
        <path d="M158.908276,77.4950185 L146.065992,64.6421862 L90.7072483,9.23797324 L90.5892126,9.11984059 L90.329534,8.85994876 L81.4768565,0 L76,0 L87.7091415,11.7187589 L143.067885,67.1229718 L143.327563,67.3828636 L143.587242,67.6427555 L158.931883,83 C159.026312,81.2280102 159.026312,79.3615144 158.908276,77.4950185 L158.908276,77.4950185 L158.908276,77.4950185 Z" id="Shape" fill="#ffffff"></path>
        <path d="M129.218259,81.2310648 L128.958888,80.9714599 L115,67 C115.754534,69.3600439 116.367594,71.7436883 116.626965,74.2217344 L126.341596,83.9451153 L126.600967,84.2047201 L152.373035,110 C152.868198,108.631175 153.504837,107.380351 154,106.011526 L129.47763,81.4670692 L129.218259,81.2310648 L129.218259,81.2310648 Z" id="Shape" fill="#ffffff"></path>
        <path d="M140.921939,71.0584184 L140.660969,70.797449 L85.0507653,15.1635204 L70.8872449,1 C69.2502551,1.11862245 67.6369898,1.37959184 66,1.75918367 L82.0377551,17.7969388 L82.2987245,18.0579082 L82.5596939,18.3188776 L138.193622,73.9528061 L158.240816,94 C158.501786,92.3630102 158.739031,90.7497449 159,89.1127551 L141.206633,71.3193878 L140.921939,71.0584184 L140.921939,71.0584184 Z" id="Shape" fill="#ffffff"></path>
        <path d="M123.165289,86.8113208 L116.491736,80 C116.491736,81.7685535 116.23416,83.4176101 116,85.1861635 L120.214876,89.4880503 L120.472452,89.7509434 L148.150138,118 C148.758953,116.733333 149.391185,115.610063 150,114.343396 L123.399449,87.1937107 L123.165289,86.8113208 L123.165289,86.8113208 Z" id="Shape" fill="#ffffff"></path>
        <path d="M61.9914558,148.991456 L61.7311863,148.731186 L6.2464673,93.2464673 L0,87 C0.260269471,89.1294775 0.496878081,91.258955 0.875451857,93.3647716 L3.24153796,95.7308577 L3.50180743,95.9911272 L3.7620769,96.2513966 L59.2467959,151.736116 L59.5070654,151.996385 L65.6352284,158.124548 C67.7647059,158.503122 69.8941834,158.739731 72,159 L62.1097601,149.10976 L61.9914558,148.991456 L61.9914558,148.991456 Z" id="Shape" fill="#ffffff"></path>
        <path d="M78.5676568,131.34182 L78.3083451,131.082508 L55.7718058,108.545969 C53.4144272,106.68364 51.1749175,104.561999 49.2890146,102.063178 L23.0513909,75.8019802 L22.7920792,75.5426686 L3.24941066,56 C2.75436115,57.4851485 2.37718058,58.8524281 2,60.3611504 L20.175389,78.5365394 L20.4347006,78.795851 L75.7152287,134.076379 L97.6388496,156 C99.1239981,155.622819 100.491278,155.245639 102,154.750589 L78.7090995,131.459689 L78.5676568,131.34182 L78.5676568,131.34182 Z" id="Shape" fill="#ffffff"></path>
        <path d="M90.1621279,120.22944 L89.9043699,119.970974 L85.9442685,116 C84.3274224,116.258466 82.5934136,116.493435 81,116.493435 L87.4439519,122.955079 L114.41482,150 C115.656745,149.389081 116.89867,148.754665 118,148.143746 L90.419886,120.464409 L90.1621279,120.22944 L90.1621279,120.22944 Z" id="Shape" fill="#ffffff"></path>
        <path d="M112.724891,98.3755334 L112.352256,98 C111.979622,98.7510669 111.490539,99.3613087 111.117904,100.112376 L110,101.238976 L110.256186,101.497155 L139.531295,131 C140.393013,130.014225 141.254731,129.004979 142,127.901849 L112.957787,98.6337127 L112.724891,98.3755334 L112.724891,98.3755334 Z" id="Shape" fill="#ffffff"></path>
        <path d="M118.113181,92.6338983 L115.489255,90 C115.111032,91.3762712 114.614613,92.7525424 114,94.1288136 L115.13467,95.2677966 L115.394699,95.5288136 L115.654728,95.7898305 L144.754298,125 C145.510745,123.861017 146.243553,122.745763 147,121.60678 L118.113181,92.6338983 L118.113181,92.6338983 Z" id="Shape" fill="#ffffff"></path>
        <path d="M135.106864,22.7758471 C130.391833,18.0608167 125.324935,14.2371851 120,11 L147,38 C143.645526,32.4404865 139.681147,27.3735882 135.106864,22.7758471 L135.106864,22.7758471 L135.106864,22.7758471 Z" id="Shape" fill="#ffffff"></path>
        <path d="M135.161191,75.7016053 L79.6187662,20.2247403 L79.3587804,19.9650614 L79.0987946,19.7053824 L61.3724888,2 C59.8834791,2.37771483 58.3708343,2.75542965 57,3.13314448 L76.7116521,22.8215297 L132.135902,78.2983947 L132.395887,78.5580737 L132.655873,78.8177526 L155.865516,102 C156.243678,100.512748 156.740014,99.1435316 157,97.6326723 L135.161191,75.7016053 L135.161191,75.7016053 Z" id="Shape" fill="#ffffff"></path>
        <path d="M154.371245,56.3705453 L154.371245,56.3705453 L154.630901,56.6303134 L156,58 C155.740343,57.2443109 155.622318,56.6303134 155.386266,55.8746243 C155.386266,55.7565479 155.26824,55.6148562 155.26824,55.6148562 C154.654506,53.6075569 153.899142,51.6238729 153.143777,49.6165736 L109.356223,5.85744955 C106.618026,4.72391584 103.738197,3.85015028 101,3 L154.229614,56.2524689 L154.371245,56.3705453 L154.371245,56.3705453 Z" id="Shape" fill="#ffffff"></path>
        <path d="M65.0359848,34.0853994 L65.0359848,34.0853994 L72.9311869,42 C74.5429293,41.7424242 76.2714646,41.6253444 78,41.5082645 L67.6287879,31.1115702 L67.3718434,30.8539945 L44.5738636,8 C43.3358586,8.60881543 42.0978535,9.24104683 41,9.84986226 L64.802399,33.8512397 L65.0359848,34.0853994 L65.0359848,34.0853994 Z" id="Shape" fill="#ffffff"></path>
        <path d="M73.8236488,137.068511 L18.486171,81.7310327 L18.2265922,81.4714539 L17.9670134,81.2118752 L1.75513829,65 C1.4955595,66.6282669 1.25957879,68.2329358 1,69.8612027 L15.3240294,84.1852322 L15.5836082,84.444811 L70.8030957,139.664298 L71.0626744,139.923877 L71.3222532,140.183456 L89.1387973,158 C90.7670642,157.740421 92.3717331,157.622431 94,157.244862 L73.8236488,137.068511 L73.8236488,137.068511 Z" id="Shape" fill="#ffffff"></path>
        <path d="M84.7288323,126.054368 L75.1627006,116.500916 C72.7830659,116.238852 70.3796348,115.738546 68,115 L81.5639181,128.579719 L81.8256779,128.841784 L82.0874377,129.103849 L106.978417,154 C108.358605,153.499695 109.619812,152.999389 111,152.356139 L84.7288323,126.054368 L84.7288323,126.054368 Z" id="Shape" fill="#ffffff"></path>
        <path d="M96.2713704,115.254663 L95.0128901,114 C93.6356852,114.615495 92.3772049,115.136298 91,115.491392 L93.3744912,117.85868 L93.6356852,118.119082 L93.8968792,118.379484 L122.604478,147 C123.744233,146.242468 124.860244,145.508608 126,144.751076 L96.2713704,115.254663 L96.2713704,115.254663 Z" id="Shape" fill="#ffffff"></path>
        <path d="M68.0734671,142.935593 L12.4136762,87.2915254 L12.1525855,87.0305085 L0.118677593,75 C0,76.8745763 0,78.6305085 0,80.5050847 L9.16191014,89.6644068 L9.42300085,89.9254237 L65.0590562,145.569492 L65.3201469,145.830508 L65.5812376,146.091525 L78.4933597,159 C80.3684657,159 82.124894,159 84,158.881356 L68.0734671,142.935593 L68.0734671,142.935593 Z" id="Shape" fill="#ffffff"></path>
        <path d="M26.3809524,73.3418424 L26.6428571,73.6043285 L44,91 C43.2380952,88.7330744 42.7380952,86.3468368 42.5,83.8174251 L29.4047619,70.8124306 L29.1428571,70.5499445 L28.8809524,70.2874584 L6.64285714,48 C6.02380952,49.3840178 5.5,50.6487236 5,52.0327414 L26.3809524,73.3418424 L26.3809524,73.3418424 Z" id="Shape" fill="#ffffff"></path>
        <path d="M37.0885529,62.545082 L37.349892,62.8080601 L43.5032397,69 C43.8833693,67.613388 44.5010799,66.226776 45,64.9596995 L40.224622,60.1543716 L39.9632829,59.8913934 L39.7019438,59.6284153 L14.2570194,34 C13.4967603,35.147541 12.7602592,36.2711749 12,37.4187158 L37.0885529,62.545082 L37.0885529,62.545082 Z" id="Shape" fill="#ffffff"></path>
        <path d="M48.2949376,51.0292398 L48.2949376,51.0292398 L51.2765957,54 C52.1452678,53.0175439 53.131328,52.1520468 54,51.2865497 L50.7835657,48.0818713 L50.6661775,47.8245614 L24.7234043,22 L23.244314,23.4736842 L22,24.7134503 L48.1540719,50.7719298 L48.2949376,51.0292398 L48.2949376,51.0292398 Z" id="Shape" fill="#ffffff"></path>
        <path d="M31.4947808,68.0628571 L41.5031315,78 C41.6214335,76.2615873 41.763396,74.6406349 42,73.0431746 L34.0027836,65.1028571 L33.7425191,64.8444444 L9.86917189,41 C9.25400139,42.2450794 8.49686848,43.3492063 8,44.5942857 L31.3764788,67.8044444 L31.4947808,68.0628571 L31.4947808,68.0628571 Z" id="Shape" fill="#ffffff"></path>
        <path d="M54.2825623,45.6451613 L54.2825623,45.6451613 L57.6412811,49 C58.7686833,48.2492669 59.8725979,47.5219941 61,46.888563 L56.9131673,42.8064516 L56.6548043,42.5483871 L31.1003559,17 C30.113879,17.7507331 29.1039146,18.6187683 28,19.4868035 L54.0476868,45.5043988 L54.2825623,45.6451613 L54.2825623,45.6451613 Z" id="Shape" fill="#ffffff"></path>
        <path d="M23.5666667,135.433333 C28.5414634,140.40813 34.1528455,144.652033 40,148 L11,119 C14.3715447,124.847154 18.5918699,130.458537 23.5666667,135.433333 L23.5666667,135.433333 L23.5666667,135.433333 Z" id="Shape" fill="#ffffff"></path>
        <path d="M57.0118343,154.126218 L3,100 C3.75739645,102.751377 4.63313609,105.645066 5.74556213,108.277848 L50.739645,153.367217 C52.4911243,153.983905 54.1242604,154.624312 55.8757396,155.122406 C55.9940828,155.122406 56.1360947,155.241 56.1360947,155.241 C57.1301775,155.501906 58.0059172,155.739094 59,156 L57.0118343,154.126218 L57.0118343,154.126218 Z" id="Shape" fill="#ffffff"></path>
        <path d="M59.7157395,39.8666667 L59.9769335,40.1268817 L64.8683853,45 C66.2455902,44.3849462 67.6227951,44.0064516 69,43.5096774 L62.7313433,37.2645161 L62.4701493,37.0043011 L37.3955224,12 C36.2557666,12.7569892 35.1397558,13.4903226 34,14.2473118 L59.4545455,39.6064516 L59.7157395,39.8666667 L59.7157395,39.8666667 Z" id="Shape" fill="#ffffff"></path>
        <path d="M70.2413793,28.7914148 L70.2413793,28.7914148 L70.5002737,29.050786 L83.7980296,42.3730351 C86.2928298,42.7503023 88.6464149,43.2454655 91,44 L72.9950739,25.9147521 L51.9775588,5 C50.6124795,5.49516324 49.3650794,5.99032648 48,6.62696493 L70.0060208,28.6735187 L70.2413793,28.7914148 L70.2413793,28.7914148 Z" id="Shape" fill="#ffffff"></path>
        <path d="M92.9675711,5.83819629 L92.9675711,5.83819629 L93.2260093,6.09714854 L148.320318,61.301061 L148.578756,61.5600133 L158,71 C157.741562,68.8812997 157.506618,66.6448939 157.130708,64.5261936 L151.304103,58.6879973 L151.022171,58.4290451 L150.787227,58.193634 L95.6929186,3.10742706 L93.460953,0.87102122 C91.3464593,0.494363395 89.1144937,0.11770557 87,0 L92.709133,5.72049072 L92.9675711,5.83819629 L92.9675711,5.83819629 Z" id="Shape" fill="#ffffff"></path>
        <path d="M42.688824,55.8896797 L42.688824,55.8896797 L42.9459459,56.1480427 L46.779401,60 C47.3871439,58.8725979 48.1351351,57.7686833 49,56.6412811 L45.5405405,53.1651246 L45.4236669,53.0476868 L19.477721,27 C18.6128561,27.9864769 17.7479912,28.9964413 17,29.9829181 L42.431702,55.513879 L42.688824,55.8896797 L42.688824,55.8896797 Z" id="Shape" fill="#ffffff"></path>
        <path d="M106.864419,104 L106.864419,104 L104,106.746055 L104.118364,106.864419 L104.236729,106.982783 L104.615495,107.361549 L134.253945,137 C134.632712,136.621234 135.129842,136.242468 135.508608,135.745337 L137,134.253945 L107.361549,104.615495 L106.864419,104 L106.864419,104 Z" id="Shape" fill="#ffffff"></path>
        <path d="M101.370714,109.263234 L101.111429,109 L99.7442857,110.387962 C99.1314286,110.770848 98.6128571,111.153735 98,111.536621 L98.3771429,111.919507 L128.006429,142 C128.996429,141.234228 130.01,140.348803 131,139.463379 L101.370714,109.263234 L101.370714,109.263234 Z" id="Shape" fill="#ffffff"></path>
    </g>
    <g id="innerCircle" transform="translate(86.000000, 74.000000)" sketch:type="MSShapeGroup">
        <circle id="innerCircleCenter" cx="15.5" cy="25.5" r="15.5" fill="#ffffff"></circle>
        <path d="M15,51 L15,49.7520776 C28.6842105,49.7520776 39.7276085,38.8033241 39.7276085,25.5 C39.7276085,12.1966759 28.5641736,1.24792244 15,1.24792244 L15,0 C29.33241,0 41,11.4432133 41,25.5 C41,39.5567867 29.33241,51 15,51 L15,51 L15,51 Z" id="innerCircleCurve" fill="#ffffff"></path>
    </g>
    <g id="outerRing" sketch:type="MSShapeGroup">
        <path d="M197.49985,100 C196.142173,100 195,98.8577586 195,97.5 C195,96.1422414 196.142173,95 197.49985,95 C198.857527,95 199.9997,96.1422414 199.9997,97.5 C200.02125,98.8577586 198.879078,100 197.49985,100 L197.49985,100 L197.49985,100 Z M197.49968,96 C196.618916,96 196,96.6190476 196,97.5 C196,98.3809524 196.618916,99 197.49968,99 C198.380444,99 198.99936,98.3809524 198.99936,97.5 C199.023164,96.6190476 198.380444,96 197.49968,96 L197.49968,96 L197.49968,96 Z" id="Shape" fill="#ffffff"></path>
        <path d="M100,199 C45.3760459,199 1,154.623954 1,100 L4.73942147,100 C4.73942147,152.493904 47.4824289,195.260579 100,195.260579 L100,199 L100,199 Z" id="Shape" fill="#ffffff"></path>
        <path d="M6.23229462,100 L0,100 C0,44.8772427 44.8772427,0 100,0 L100,6.23229462 C48.2530689,6.23229462 6.23229462,48.2530689 6.23229462,100 L6.23229462,100 L6.23229462,100 Z" id="Shape" fill="#ffffff"></path>
        <path d="M100,198 L100,196.742373 C153.389831,196.742373 196.742373,153.389831 196.742373,100 L198,100 C198,154.00678 154.00678,198 100,198 L100,198 L100,198 Z" id="Shape" fill="#ffffff"></path>
    </g>

</svg>